# xmcd
#
# Track frame offsets:
#	150
#	19859
#	40442
#	66580
#	94575
#	118435
#	153065
#	181187
#	204340
#	234271
#	259373
#	275743
#
# Disc length: 3953 seconds
#
# Revision: 1
# Processed by: cddbd v1.4PL0 Copyright (c) Steve Scherf et al.
# Submitted via: audiograbber 1.82.01
#
DISCID=aa0f6f0c
DTITLE=Ahlam - Ahsan
DYEAR=1900
DGENRE=
TTITLE0=Ahsan
TTITLE1=Allah Ye3in oulubhom
TTITLE2=Leh Metdayek
TTITLE3=3ala Shanak
TTITLE4=Ya Wahechna
TTITLE5=Bab El Leil
TTITLE6=La Te3id
TTITLE7=La Tegoul
TTITLE8=Lak 3ouyouni
TTITLE9=Taghyir El Waket
TTITLE10=Soukoutak
TTITLE11=Adimeh
EXTD=
EXTT0=
EXTT1=
EXTT2=
EXTT3=
EXTT4=
EXTT5=
EXTT6=
EXTT7=
EXTT8=
EXTT9=
EXTT10=
EXTT11=
PLAYORDER=
